<?xml version="1.0" standalone="no"?><!DOCTYPE svg PUBLIC "-//W3C//DTD SVG 1.1//EN" "http://www.w3.org/Graphics/SVG/1.1/DTD/svg11.dtd"><svg t="1603969433173" class="icon" viewBox="0 0 1024 1024" version="1.1" xmlns="http://www.w3.org/2000/svg" p-id="1350" xmlns:xlink="http://www.w3.org/1999/xlink" width="200" height="200"><defs><style type="text/css"></style></defs><path d="M910 446V1024H15.6V446l7.2 1.6 7.2 1.6v560.4h865.2V449.2z" fill="#4A555F" p-id="1351"></path><path d="M463.6 77.6l76.8 66.8c-41.2 33.6-90.4 58.8-141.6 73.2L256 257.2l207.6-179.6zM843.2 388l-19.6-17.2 16.8 61.2-74 20.4-4 1.2c-4-2.4-8.4-4.8-12.4-6.8-6-3.2-12-6-18.4-8.8-3.2-1.6-6.8-3.2-10-4.4h-0.4c-73.6-31.2-155.2-40-234-25.6-4.4 0.8-8.8 1.6-13.2 2.8-6.8 1.6-13.2 3.2-20 5.2h-0.4l-7.6 2.4 5.2 13.2 62 163.6-40 11.2L380 451.2l-7.6-12.8-54.4 15.2-14 4-7.2 2c-8 2.4-16.4 1.2-23.6-2.8-7.2-4-12.4-10.8-14.4-18.8L224 313.2c-2.4-8-1.2-16.4 2.8-23.6 4-7.2 10.8-12.4 18.8-14.4l7.2-2 14-4 136-38c3.6-0.8 7.2-2 10.4-3.2 3.6-1.2 6.8-2 10.4-3.2 3.2-1.2 6.8-2.4 10-3.6h0.4c2.8-1.2 6-2.4 8.8-3.6l12-4.8c1.6-0.8 3.2-1.6 4.8-2 7.6-3.6 15.2-7.2 22.8-11.2 2.8-1.6 5.6-2.8 8.4-4.4 23.2-12.8 45.6-28 65.6-45.2l6.4-5.6-11.6-10-87.2-76L15.6 446v6.8l14.4 10.8 359.6 266.4 8.8-11.6-361.2-267.2-2.8-2 2.8-2.4 172-148.8c-1.2 6.4-0.8 12.8 1.2 19.2l34.8 124.8c3.2 11.6 10.8 21.6 21.6 27.2 10.4 6 22.8 7.6 34.4 4l14-4 50.8-14 100.4 167.6 65.6-18.4-67.2-176.4c4-1.2 8-2 12-2.8l6-1.2 6-1.2 6-1.2c2-0.4 4-0.8 5.6-0.8 4-0.8 8.4-1.2 12.4-1.6 31.2-4 62.4-4 93.6-0.4 2.4 0.4 4.8 0.4 7.6 0.8 49.2 6.4 97.2 22.4 141.2 47.2 0 0 0.4 0 0.4 0.4 1.6 0.8 3.6 2 5.2 2.8l97.6-27.2-8-28.8 40.8 35.6-370 270.8 8.4 11.6 365.6-267.6 14.4-10.4v-6.8L843.2 388z" fill="#4A555F" p-id="1352"></path><path d="M507.2 709.2l334-244.8-73.2 20.4-9.6 2.8-8.8-5.2c-57.2-33.2-122.4-50-188-50-24.8 0-50 2.4-74.4 7.6l57.2 151.6 9.2 24.8-25.2 7.2-52.8 14.8-17.6 4.8-9.6-15.6-90.8-152-38.4 10.8-14 4c-5.6 1.6-11.2 2.4-16.8 2.4-10.4 0-20.8-2.8-30.4-8-14.4-8-24.8-21.6-29.2-37.6l-32-115.6L61.2 448l351.6 261.6L460 672l47.2 37.2zM463.6 100l-140 121.2 70.4-19.6c42.8-12 83.6-31.6 119.6-58L463.6 100z" fill="#E0E0E0" p-id="1353"></path><path d="M463.6 100l-140 121.2 70.4-19.6c42.8-12 83.6-31.6 119.6-58L463.6 100z" fill="#E0E0E0" p-id="1354"></path><path d="M256 456.8h-2.4v-14.4h2.4v14.4z m-16.8 0h-14.4v-14.4h14.4v14.4z m-28.8 0H196v-14.4h14.4v14.4z m-28.8 0h-14.4v-14.4h14.4v14.4z m-29.2 0h-14.4v-14.4h14.4v14.4z m-28.8 0h-14.4v-14.4h14.4v14.4z m-28.8 0h-14.4v-14.4h14.4v14.4z m-28.8 0h-14.4v-14.4h14.4v14.4z m-43.2-14.8v14.4h14.4v-14.4H22.8zM736.8 456.8h-12v-14.4h12v14.4z m-26.4 0H696v-14.4h14.4v14.4z m-28.8 0h-14.4v-14.4h14.4v14.4z m-28.8 0h-14.4v-14.4h14.4v14.4z m-29.2 0h-14.4v-14.4h14.4v14.4z m-28.8 0h-14.4v-14.4h14.4v14.4z m-28.8 0h-14.4v-14.4h14.4v14.4z m-28.8 0h-14.4v-14.4h14.4v14.4z m-28.8 0h-14.4v-14.4h14.4v14.4z m-28.8 0h-14.4v-14.4h14.4v14.4zM850 413.6l-7.2-25.2-108-388-97.6 27.2c-0.8 1.6-2 3.6-2.8 5.2l5.6 19.6 110 395.2 5.2 19.2c1.6 0.8 3.6 2 5.2 2.8l97.6-27.2-8-28.8z m-83.6 39.2L651.2 38.4l74-20.4 115.2 414.4-74 20.4z" fill="#4A555F" p-id="1355"></path><path d="M710.572 43.868l103.984 373.8-33.14 9.22-103.984-373.8z" fill="#F68F6F" p-id="1356"></path><path d="M532.4 402.4c53.2-4 106.4 2.8 156.8 19.2-40.8-13.6-83.6-20.8-127.2-20.8-9.6 0.4-19.6 0.8-29.6 1.6z m-29.2 3.2c-5.2 0.8-10.8 1.6-16 2.8 5.2-1.2 10.8-2 16-2.8z m202 21.6c5.2 2 10.8 4 16 6.4-5.6-2.4-10.8-4.4-16-6.4z m-192-23.2c-3.2 0.4-6.8 0.8-10 1.2 3.2-0.4 6.8-0.8 10-1.2z m183.6 20c2.8 0.8 5.6 2 8 2.8-2.4-0.8-5.2-1.6-8-2.8z m-7.2-2.4c2.4 0.8 4.8 1.6 7.6 2.4-2.8-0.8-5.2-1.6-7.6-2.4z m-157.2-19.2h-1.2 1.2z m-13.6 1.2c-2 0-3.6 0.4-5.6 0.8 2-0.4 3.6-0.8 5.6-0.8z m12.4-1.2c-4 0.4-8.4 0.8-12.4 1.2 4-0.4 8-0.8 12.4-1.2z m-158.8 36l7.6 12.8 70.8-19.6-5.2-13.2 7.6-2.4-80.8 22.4z m40.4-210c-3.6 1.2-7.2 2-10.4 3.2l-136 38 136-38c3.6-1.2 7.2-2 10.4-3.2zM252.4 273.2L304 457.6l14-4-51.6-184.4-14 4z m514 179.6L649.2 31.2l-11.6-4.4c-0.8 1.6-2 3.6-2.8 5.2-22 38.4-50.4 72.8-83.6 102-44 38.4-96.4 67.6-152.4 83.2L256 256.8l-5.2 8.8 2 6.8L304 457.6l2 6.8 8.8 5.2 50.8-14 14.4-4 70.8-19.6 6.8-2c2.4-0.8 4.8-1.2 7.2-2 4-1.2 8-2 12-2.8l6-1.2 6-1.2 6-1.2c2-0.4 3.6-0.8 5.6-0.8 4-0.8 8.4-1.2 12.4-1.6 16.4-2 32.8-3.2 49.6-3.2 14.8 0 29.6 0.8 44 2.8 2.4 0.4 4.8 0.4 7.6 0.8 49.2 6.8 98 23.2 141.2 47.2 0 0 0.4 0 0.4 0.4 1.6 0.8 3.6 2 5.2 2.8l8-9.6-2.4-7.6z m-44.8-19.2c-0.4 0-0.4 0 0 0-5.6-2.4-11.2-4.4-16.4-6.4-2.8-1.2-5.6-2-8-2.8-2.4-0.8-5.2-1.6-7.6-2.4-40.8-13.6-83.6-20.4-127.2-20.4-10 0-20 0.4-30 1.2h-1.2c-4 0.4-8.4 0.8-12.4 1.2-2 0-3.6 0.4-5.6 0.8-3.2 0.4-6.8 0.8-10 1.2-5.2 0.8-10.8 1.6-16 2.8-4.4 0.8-8.8 1.6-13.2 2.8-6.8 1.6-13.2 3.2-20 5.2h-0.4l-81.2 22.4-54.4 15.2-51.6-185.2 136-38c3.6-0.8 7.2-2 10.4-3.2 3.6-1.2 6.8-2 10.4-3.2 3.2-1.2 6.8-2.4 10-3.6h0.4c2.8-1.2 6-2.4 8.8-3.6l12-4.8c1.6-0.8 3.2-1.6 4.8-2 7.6-3.6 15.2-7.2 22.8-11.2 2.8-1.6 5.6-3.2 8.4-4.4 25.6-14.4 50-31.6 72-50.8 30.4-26.8 56.4-58 77.6-92.4l110 395.2c-6-3.2-12-6-18.4-8.8-3.2-2-6.8-3.2-10-4.8z" fill="#4A555F" p-id="1357"></path><path d="M288.4 475.2c-20.4 0-38.4-13.6-43.6-33.2l-34.8-124.8c-3.2-11.6-1.6-24 4.4-34.4 6-10.4 15.6-18 27.2-21.2l20.8-6 59.2 212-20.8 6c-4 0.8-8 1.6-12.4 1.6z m-36-202l-6.8 2c-8 2.4-14.4 7.2-18.8 14.4-4 7.2-5.2 15.6-2.8 23.6l34.8 124.8c3.6 13.2 16 22.8 29.6 22.8 2.8 0 5.6-0.4 8.4-1.2l6.8-2-51.2-184.4zM466 623.2l-108-180.8 101.6-28.4 72 190.8-65.6 18.4z m-86-172l92.8 154.8 40-11.2-62-163.6-70.8 20z" fill="#4A555F" p-id="1358"></path><path d="M482.4 581.6l-70-117.2 25.2-7.2 46.8 123.6z" fill="#F68F6F" p-id="1359"></path><path d="M806.4 310l-38.8-140 6.8-2c6.4-1.6 12.8-2.8 19.6-2.8 32.4 0 61.2 22 70 53.2 5.2 18.8 2.8 38.4-6.8 55.2-9.6 16.8-25.2 29.2-43.6 34.4l-7.2 2z m-21.2-129.6l30.8 111.2c12-4.8 21.6-13.6 28.4-25.2 7.6-13.6 9.6-29.2 5.2-44-6.8-25.2-30-42.4-56-42.4-2.4 0-5.2 0-8.4 0.4z" fill="#4A555F" p-id="1360"></path><path d="M1004.188 167.28l3.86 13.868-79.772 22.184-3.856-13.872zM921.18 36.984l10.92 9.384-53.96 62.8-10.92-9.38zM929.932 296.2l78.64 25.92-4.504 13.676-78.644-25.92z" fill="#4A555F" p-id="1361"></path><path d="M892.8 1022.4L460 681.2 27.2 1022.4l-8.8-11.2L460 662.8l442 348.4z" fill="#4A555F" p-id="1362"></path></svg>